<svg width="102" height="31" viewBox="0 0 102 31" fill="none" xmlns="http://www.w3.org/2000/svg">
<rect width="102" height="31" rx="3" fill="#F1F1F1"/>
<path d="M41.4299 15.7775C41.4299 14.7484 41.3457 13.9985 41.1677 13.2227H29.4658V17.8617H36.3348C36.1956 19.0141 35.4478 20.7509 33.7872 21.9163L33.7646 22.0722L37.4645 24.9484L37.7203 24.9744C40.0736 22.7928 41.4331 19.5855 41.4331 15.7808" fill="#3283FC"/>
<path d="M29.4658 28.0001C32.8323 28.0001 35.655 26.8898 37.7202 24.9713L33.7872 21.9165C32.7352 22.6534 31.3206 23.1663 29.4658 23.1663C26.1705 23.1663 23.3704 20.9848 22.3734 17.9722L22.2278 17.9852L18.379 20.9718L18.3271 21.1114C20.3762 25.1953 24.5876 28.0001 29.4625 28.0001" fill="#00AC47"/>
<path d="M22.3735 17.972C22.1113 17.1929 21.9592 16.3618 21.9592 15.4983C21.9592 14.6348 22.1113 13.8037 22.3605 13.0246L22.3541 12.8591L18.4567 9.82373L18.3304 9.88541C17.4856 11.58 17 13.4823 17 15.4983C17 17.5143 17.4856 19.4166 18.3304 21.108L22.3735 17.9688" fill="#FFBB00"/>
<path d="M29.466 7.83379C31.8063 7.83379 33.386 8.84665 34.2859 9.69394L37.8046 6.24958C35.6455 4.23685 32.8325 3 29.466 3C24.591 3 20.3796 5.80483 18.3306 9.88872L22.3607 13.0279C23.3706 10.0153 26.1707 7.83379 29.466 7.83379Z" fill="#FE2C25"/>
<path d="M48.2584 14.5H47.6121L49.4814 9.40909H50.1178L51.9871 14.5H51.3408L49.8195 10.2145H49.7797L48.2584 14.5ZM48.497 12.5114H51.1021V13.0582H48.497V12.5114ZM55.3441 10.6818L53.9322 14.5H53.3356L51.9237 10.6818H52.5601L53.614 13.7244H53.6538L54.7078 10.6818H55.3441ZM57.1258 14.5895C56.8839 14.5895 56.6643 14.5439 56.4671 14.4528C56.2699 14.36 56.1133 14.2266 55.9973 14.0526C55.8813 13.8769 55.8233 13.6648 55.8233 13.4162C55.8233 13.1974 55.8664 13.0201 55.9525 12.8842C56.0387 12.7467 56.1539 12.639 56.2981 12.5611C56.4422 12.4832 56.6013 12.4252 56.7753 12.3871C56.951 12.3473 57.1275 12.3158 57.3048 12.2926C57.5368 12.2628 57.7249 12.2404 57.8691 12.2255C58.0149 12.2089 58.121 12.1816 58.1873 12.1435C58.2552 12.1054 58.2892 12.0391 58.2892 11.9446V11.9247C58.2892 11.6795 58.2221 11.4889 58.0878 11.353C57.9553 11.2171 57.7539 11.1491 57.4838 11.1491C57.2037 11.1491 56.9842 11.2105 56.8251 11.3331C56.666 11.4557 56.5541 11.5866 56.4895 11.7259L55.9327 11.527C56.0321 11.295 56.1647 11.1143 56.3304 10.9851C56.4978 10.8542 56.6801 10.763 56.8773 10.7116C57.0761 10.6586 57.2717 10.6321 57.4639 10.6321C57.5865 10.6321 57.7274 10.647 57.8865 10.6768C58.0472 10.705 58.2022 10.7638 58.3513 10.8533C58.5021 10.9428 58.6273 11.0779 58.7267 11.2585C58.8261 11.4392 58.8758 11.6811 58.8758 11.9844V14.5H58.2892V13.983H58.2594C58.2196 14.0658 58.1533 14.1545 58.0605 14.2489C57.9677 14.3434 57.8442 14.4238 57.6901 14.4901C57.536 14.5563 57.3479 14.5895 57.1258 14.5895ZM57.2153 14.0625C57.4473 14.0625 57.6429 14.0169 57.802 13.9258C57.9627 13.8346 58.0837 13.717 58.1649 13.5728C58.2478 13.4286 58.2892 13.277 58.2892 13.1179V12.581C58.2643 12.6108 58.2097 12.6381 58.1251 12.663C58.0423 12.6862 57.9462 12.7069 57.8368 12.7251C57.7291 12.7417 57.6238 12.7566 57.5211 12.7699C57.42 12.7815 57.338 12.7914 57.275 12.7997C57.1225 12.8196 56.98 12.8519 56.8474 12.8967C56.7165 12.9397 56.6105 13.0052 56.5293 13.093C56.4497 13.1792 56.4099 13.2969 56.4099 13.446C56.4099 13.6499 56.4853 13.804 56.6361 13.9084C56.7886 14.0111 56.9817 14.0625 57.2153 14.0625ZM59.9466 14.5V10.6818H60.5332V14.5H59.9466ZM60.2449 10.0455C60.1305 10.0455 60.0319 10.0065 59.9491 9.92862C59.8679 9.85073 59.8273 9.7571 59.8273 9.64773C59.8273 9.53835 59.8679 9.44472 59.9491 9.36683C60.0319 9.28894 60.1305 9.25 60.2449 9.25C60.3592 9.25 60.457 9.28894 60.5382 9.36683C60.6211 9.44472 60.6625 9.53835 60.6625 9.64773C60.6625 9.7571 60.6211 9.85073 60.5382 9.92862C60.457 10.0065 60.3592 10.0455 60.2449 10.0455ZM62.1944 9.40909V14.5H61.6077V9.40909H62.1944ZM64.3924 14.5895C64.1505 14.5895 63.9309 14.5439 63.7337 14.4528C63.5365 14.36 63.3799 14.2266 63.2639 14.0526C63.1479 13.8769 63.0899 13.6648 63.0899 13.4162C63.0899 13.1974 63.133 13.0201 63.2191 12.8842C63.3053 12.7467 63.4205 12.639 63.5647 12.5611C63.7089 12.4832 63.8679 12.4252 64.0419 12.3871C64.2176 12.3473 64.3941 12.3158 64.5714 12.2926C64.8034 12.2628 64.9915 12.2404 65.1357 12.2255C65.2815 12.2089 65.3876 12.1816 65.4539 12.1435C65.5218 12.1054 65.5558 12.0391 65.5558 11.9446V11.9247C65.5558 11.6795 65.4887 11.4889 65.3544 11.353C65.2219 11.2171 65.0205 11.1491 64.7504 11.1491C64.4703 11.1491 64.2508 11.2105 64.0917 11.3331C63.9326 11.4557 63.8207 11.5866 63.7561 11.7259L63.1993 11.527C63.2987 11.295 63.4313 11.1143 63.597 10.9851C63.7644 10.8542 63.9467 10.763 64.1439 10.7116C64.3427 10.6586 64.5383 10.6321 64.7305 10.6321C64.8531 10.6321 64.994 10.647 65.1531 10.6768C65.3138 10.705 65.4688 10.7638 65.6179 10.8533C65.7687 10.9428 65.8939 11.0779 65.9933 11.2585C66.0927 11.4392 66.1424 11.6811 66.1424 11.9844V14.5H65.5558V13.983H65.526C65.4862 14.0658 65.4199 14.1545 65.3271 14.2489C65.2343 14.3434 65.1108 14.4238 64.9567 14.4901C64.8026 14.5563 64.6145 14.5895 64.3924 14.5895ZM64.4819 14.0625C64.7139 14.0625 64.9095 14.0169 65.0686 13.9258C65.2293 13.8346 65.3503 13.717 65.4315 13.5728C65.5144 13.4286 65.5558 13.277 65.5558 13.1179V12.581C65.5309 12.6108 65.4763 12.6381 65.3917 12.663C65.3089 12.6862 65.2128 12.7069 65.1034 12.7251C64.9957 12.7417 64.8904 12.7566 64.7877 12.7699C64.6866 12.7815 64.6046 12.7914 64.5416 12.7997C64.3891 12.8196 64.2466 12.8519 64.114 12.8967C63.9831 12.9397 63.8771 13.0052 63.7959 13.093C63.7163 13.1792 63.6765 13.2969 63.6765 13.446C63.6765 13.6499 63.7519 13.804 63.9027 13.9084C64.0552 14.0111 64.2483 14.0625 64.4819 14.0625ZM67.2927 14.5V9.40909H67.8794V11.2884H67.9291C67.9722 11.2221 68.0319 11.1375 68.1081 11.0348C68.186 10.9304 68.297 10.8376 68.4412 10.7564C68.587 10.6735 68.7842 10.6321 69.0328 10.6321C69.3543 10.6321 69.6377 10.7125 69.8829 10.8732C70.1282 11.034 70.3196 11.2618 70.4572 11.5568C70.5947 11.8518 70.6635 12.1998 70.6635 12.6009C70.6635 13.0052 70.5947 13.3557 70.4572 13.6523C70.3196 13.9473 70.129 14.176 69.8854 14.3384C69.6418 14.4992 69.3609 14.5795 69.0427 14.5795C68.7975 14.5795 68.6011 14.5389 68.4536 14.4577C68.3061 14.3749 68.1926 14.2812 68.1131 14.1768C68.0335 14.0708 67.9722 13.983 67.9291 13.9134H67.8595V14.5H67.2927ZM67.8695 12.5909C67.8695 12.8793 67.9117 13.1336 67.9962 13.354C68.0807 13.5728 68.2042 13.7443 68.3666 13.8686C68.529 13.9912 68.7279 14.0526 68.9632 14.0526C69.2085 14.0526 69.4131 13.9879 69.5772 13.8587C69.7429 13.7277 69.8672 13.5521 69.9501 13.3317C70.0346 13.1096 70.0768 12.8627 70.0768 12.5909C70.0768 12.3224 70.0354 12.0805 69.9525 11.8651C69.8713 11.648 69.7479 11.4764 69.5822 11.3505C69.4181 11.2229 69.2118 11.1591 68.9632 11.1591C68.7246 11.1591 68.524 11.2196 68.3616 11.3406C68.1992 11.4599 68.0766 11.6272 67.9937 11.8427C67.9109 12.0565 67.8695 12.3059 67.8695 12.5909ZM72.1475 9.40909V14.5H71.5609V9.40909H72.1475ZM74.8228 14.5795C74.4549 14.5795 74.1376 14.4983 73.8708 14.3359C73.6056 14.1719 73.401 13.9432 73.2568 13.6499C73.1143 13.3549 73.043 13.0118 73.043 12.6207C73.043 12.2296 73.1143 11.8849 73.2568 11.5866C73.401 11.2867 73.6015 11.053 73.8584 10.8857C74.1169 10.7166 74.4185 10.6321 74.7632 10.6321C74.962 10.6321 75.1584 10.6652 75.3523 10.7315C75.5462 10.7978 75.7227 10.9055 75.8818 11.0547C76.0409 11.2022 76.1677 11.3977 76.2621 11.6413C76.3566 11.8849 76.4038 12.1849 76.4038 12.5412V12.7898H73.4606V12.2827H75.8072C75.8072 12.0672 75.7641 11.875 75.678 11.706C75.5934 11.5369 75.4725 11.4035 75.315 11.3058C75.1593 11.208 74.9753 11.1591 74.7632 11.1591C74.5295 11.1591 74.3273 11.2171 74.1566 11.3331C73.9876 11.4474 73.8575 11.5966 73.7664 11.7805C73.6752 11.9645 73.6297 12.1617 73.6297 12.3722V12.7102C73.6297 12.9986 73.6794 13.243 73.7788 13.4435C73.8799 13.6424 74.0199 13.794 74.1989 13.8984C74.3779 14.0012 74.5859 14.0526 74.8228 14.0526C74.977 14.0526 75.1162 14.031 75.2405 13.9879C75.3664 13.9432 75.4749 13.8769 75.5661 13.7891C75.6572 13.6996 75.7277 13.5885 75.7774 13.456L76.3441 13.6151C76.2845 13.8073 76.1842 13.9763 76.0434 14.1222C75.9025 14.2663 75.7285 14.379 75.5214 14.4602C75.3142 14.5398 75.0814 14.5795 74.8228 14.5795ZM80.8161 14.5795C80.4714 14.5795 80.169 14.4975 79.9088 14.3335C79.6503 14.1694 79.4481 13.9399 79.3022 13.6449C79.1581 13.3499 79.086 13.0052 79.086 12.6108C79.086 12.2131 79.1581 11.8659 79.3022 11.5692C79.4481 11.2726 79.6503 11.0423 79.9088 10.8782C80.169 10.7141 80.4714 10.6321 80.8161 10.6321C81.1608 10.6321 81.4624 10.7141 81.7209 10.8782C81.9811 11.0423 82.1833 11.2726 82.3275 11.5692C82.4733 11.8659 82.5462 12.2131 82.5462 12.6108C82.5462 13.0052 82.4733 13.3499 82.3275 13.6449C82.1833 13.9399 81.9811 14.1694 81.7209 14.3335C81.4624 14.4975 81.1608 14.5795 80.8161 14.5795ZM80.8161 14.0526C81.0779 14.0526 81.2934 13.9854 81.4624 13.8512C81.6314 13.717 81.7566 13.5405 81.8378 13.3217C81.919 13.103 81.9596 12.866 81.9596 12.6108C81.9596 12.3556 81.919 12.1178 81.8378 11.8974C81.7566 11.677 81.6314 11.4988 81.4624 11.3629C81.2934 11.227 81.0779 11.1591 80.8161 11.1591C80.5543 11.1591 80.3388 11.227 80.1698 11.3629C80.0008 11.4988 79.8756 11.677 79.7944 11.8974C79.7132 12.1178 79.6726 12.3556 79.6726 12.6108C79.6726 12.866 79.7132 13.103 79.7944 13.3217C79.8756 13.5405 80.0008 13.717 80.1698 13.8512C80.3388 13.9854 80.5543 14.0526 80.8161 14.0526ZM84.0284 12.2031V14.5H83.4417V10.6818H84.0085V11.2784H84.0582C84.1477 11.0845 84.2836 10.9287 84.4659 10.8111C84.6482 10.6918 84.8835 10.6321 85.1718 10.6321C85.4304 10.6321 85.6566 10.6851 85.8505 10.7912C86.0443 10.8956 86.1951 11.0547 86.3029 11.2685C86.4106 11.4806 86.4644 11.7491 86.4644 12.0739V14.5H85.8778V12.1136C85.8778 11.8137 85.7999 11.58 85.6441 11.4126C85.4884 11.2436 85.2746 11.1591 85.0028 11.1591C84.8155 11.1591 84.6482 11.1997 84.5007 11.2809C84.3548 11.3621 84.2397 11.4806 84.1551 11.6364C84.0706 11.7921 84.0284 11.9811 84.0284 12.2031ZM51.2513 19.0547C51.2165 18.9337 51.1676 18.8268 51.1046 18.734C51.0417 18.6396 50.9646 18.56 50.8734 18.4954C50.784 18.4291 50.6812 18.3786 50.5652 18.3438C50.4509 18.3089 50.3241 18.2915 50.1849 18.2915C49.9247 18.2915 49.696 18.3562 49.4988 18.4854C49.3033 18.6147 49.1508 18.8028 49.0414 19.0497C48.932 19.295 48.8774 19.5949 48.8774 19.9496C48.8774 20.3042 48.9312 20.6058 49.0389 20.8544C49.1466 21.103 49.2991 21.2927 49.4963 21.4237C49.6935 21.5529 49.9264 21.6175 50.1948 21.6175C50.4384 21.6175 50.6464 21.5745 50.8188 21.4883C50.9928 21.4004 51.1253 21.277 51.2165 21.1179C51.3093 20.9588 51.3557 20.7707 51.3557 20.5536L51.5744 20.5859H50.2619V19.7756H52.3923V20.4169C52.3923 20.8643 52.2978 21.2488 52.1089 21.5703C51.92 21.8902 51.6598 22.1371 51.3283 22.3111C50.9969 22.4834 50.6174 22.5696 50.1899 22.5696C49.7126 22.5696 49.2933 22.4644 48.932 22.2539C48.5708 22.0418 48.289 21.741 48.0869 21.3516C47.8863 20.9605 47.7861 20.4964 47.7861 19.9595C47.7861 19.5469 47.8457 19.179 47.9651 18.8558C48.086 18.531 48.2551 18.2559 48.4722 18.0305C48.6893 17.8052 48.942 17.6336 49.2303 17.516C49.5187 17.3983 49.8311 17.3395 50.1675 17.3395C50.4558 17.3395 50.7243 17.3817 50.9729 17.4663C51.2215 17.5491 51.4419 17.6668 51.6341 17.8192C51.828 17.9717 51.9863 18.1532 52.1089 18.3636C52.2315 18.5724 52.3102 18.8028 52.345 19.0547H51.2513ZM54.906 22.5746C54.5199 22.5746 54.186 22.4925 53.9043 22.3285C53.6242 22.1628 53.4079 21.9324 53.2555 21.6374C53.103 21.3408 53.0268 20.9969 53.0268 20.6058C53.0268 20.2114 53.103 19.8667 53.2555 19.5717C53.4079 19.2751 53.6242 19.0447 53.9043 18.8807C54.186 18.715 54.5199 18.6321 54.906 18.6321C55.2922 18.6321 55.6253 18.715 55.9053 18.8807C56.187 19.0447 56.4041 19.2751 56.5566 19.5717C56.7091 19.8667 56.7853 20.2114 56.7853 20.6058C56.7853 20.9969 56.7091 21.3408 56.5566 21.6374C56.4041 21.9324 56.187 22.1628 55.9053 22.3285C55.6253 22.4925 55.2922 22.5746 54.906 22.5746ZM54.911 21.7543C55.0867 21.7543 55.2333 21.7045 55.351 21.6051C55.4686 21.504 55.5573 21.3665 55.617 21.1925C55.6783 21.0185 55.7089 20.8204 55.7089 20.5984C55.7089 20.3763 55.6783 20.1783 55.617 20.0043C55.5573 19.8303 55.4686 19.6927 55.351 19.5916C55.2333 19.4905 55.0867 19.44 54.911 19.44C54.7337 19.44 54.5845 19.4905 54.4636 19.5916C54.3442 19.6927 54.2539 19.8303 54.1926 20.0043C54.1329 20.1783 54.1031 20.3763 54.1031 20.5984C54.1031 20.8204 54.1329 21.0185 54.1926 21.1925C54.2539 21.3665 54.3442 21.504 54.4636 21.6051C54.5845 21.7045 54.7337 21.7543 54.911 21.7543ZM59.199 22.5746C58.8129 22.5746 58.4789 22.4925 58.1972 22.3285C57.9172 22.1628 57.7009 21.9324 57.5484 21.6374C57.396 21.3408 57.3197 20.9969 57.3197 20.6058C57.3197 20.2114 57.396 19.8667 57.5484 19.5717C57.7009 19.2751 57.9172 19.0447 58.1972 18.8807C58.4789 18.715 58.8129 18.6321 59.199 18.6321C59.5851 18.6321 59.9182 18.715 60.1983 18.8807C60.48 19.0447 60.6971 19.2751 60.8496 19.5717C61.002 19.8667 61.0783 20.2114 61.0783 20.6058C61.0783 20.9969 61.002 21.3408 60.8496 21.6374C60.6971 21.9324 60.48 22.1628 60.1983 22.3285C59.9182 22.4925 59.5851 22.5746 59.199 22.5746ZM59.204 21.7543C59.3796 21.7543 59.5263 21.7045 59.644 21.6051C59.7616 21.504 59.8503 21.3665 59.9099 21.1925C59.9713 21.0185 60.0019 20.8204 60.0019 20.5984C60.0019 20.3763 59.9713 20.1783 59.9099 20.0043C59.8503 19.8303 59.7616 19.6927 59.644 19.5916C59.5263 19.4905 59.3796 19.44 59.204 19.44C59.0266 19.44 58.8775 19.4905 58.7565 19.5916C58.6372 19.6927 58.5469 19.8303 58.4856 20.0043C58.4259 20.1783 58.3961 20.3763 58.3961 20.5984C58.3961 20.8204 58.4259 21.0185 58.4856 21.1925C58.5469 21.3665 58.6372 21.504 58.7565 21.6051C58.8775 21.7045 59.0266 21.7543 59.204 21.7543ZM63.487 24.0114C63.144 24.0114 62.8498 23.9641 62.6045 23.8697C62.3609 23.7769 62.167 23.6501 62.0229 23.4893C61.8787 23.3286 61.7851 23.148 61.742 22.9474L62.7214 22.8157C62.7512 22.8919 62.7984 22.9632 62.8631 23.0295C62.9277 23.0958 63.013 23.1488 63.1191 23.1886C63.2268 23.23 63.3577 23.2507 63.5119 23.2507C63.7422 23.2507 63.932 23.1944 64.0811 23.0817C64.2319 22.9706 64.3073 22.7842 64.3073 22.5224V21.8239H64.2626C64.2162 21.9299 64.1466 22.0302 64.0538 22.1246C63.961 22.2191 63.8416 22.2962 63.6958 22.3558C63.55 22.4155 63.376 22.4453 63.1738 22.4453C62.8871 22.4453 62.6261 22.379 62.3908 22.2464C62.1571 22.1122 61.9707 21.9076 61.8315 21.6325C61.6939 21.3557 61.6251 21.006 61.6251 20.5835C61.6251 20.1509 61.6956 19.7897 61.8364 19.4996C61.9773 19.2096 62.1646 18.9925 62.3982 18.8484C62.6335 18.7042 62.8912 18.6321 63.1713 18.6321C63.3851 18.6321 63.5641 18.6686 63.7082 18.7415C63.8524 18.8127 63.9684 18.9022 64.0562 19.0099C64.1457 19.116 64.2145 19.2204 64.2626 19.3232H64.3023V18.6818H65.3538V22.5373C65.3538 22.8621 65.2743 23.1339 65.1152 23.3526C64.9561 23.5714 64.7357 23.7354 64.454 23.8448C64.1739 23.9558 63.8516 24.0114 63.487 24.0114ZM63.5094 21.6499C63.6801 21.6499 63.8242 21.6076 63.9419 21.5231C64.0612 21.4369 64.1524 21.3143 64.2153 21.1552C64.28 20.9944 64.3123 20.8022 64.3123 20.5785C64.3123 20.3548 64.2808 20.1609 64.2178 19.9968C64.1548 19.8311 64.0637 19.7027 63.9444 19.6115C63.8251 19.5204 63.6801 19.4748 63.5094 19.4748C63.3354 19.4748 63.1887 19.522 63.0694 19.6165C62.9501 19.7093 62.8597 19.8385 62.7984 20.0043C62.7371 20.17 62.7065 20.3614 62.7065 20.5785C62.7065 20.7989 62.7371 20.9895 62.7984 21.1502C62.8614 21.3093 62.9517 21.4328 63.0694 21.5206C63.1887 21.6068 63.3354 21.6499 63.5094 21.6499ZM67.2555 17.4091V22.5H66.1965V17.4091H67.2555ZM69.8438 22.5746C69.451 22.5746 69.113 22.495 68.8296 22.3359C68.5479 22.1752 68.3308 21.9482 68.1783 21.6548C68.0258 21.3598 67.9496 21.011 67.9496 20.6083C67.9496 20.2156 68.0258 19.8709 68.1783 19.5742C68.3308 19.2776 68.5454 19.0464 68.8221 18.8807C69.1005 18.715 69.427 18.6321 69.8015 18.6321C70.0534 18.6321 70.2879 18.6727 70.505 18.7539C70.7238 18.8335 70.9143 18.9536 71.0767 19.1143C71.2408 19.2751 71.3684 19.4773 71.4596 19.7209C71.5507 19.9628 71.5963 20.2462 71.5963 20.571V20.8619H68.3722V20.2056H70.5995C70.5995 20.0531 70.5663 19.9181 70.5 19.8004C70.4338 19.6828 70.3418 19.5908 70.2241 19.5245C70.1081 19.4566 69.9731 19.4226 69.8189 19.4226C69.6582 19.4226 69.5157 19.4599 69.3914 19.5344C69.2687 19.6074 69.1726 19.706 69.103 19.8303C69.0334 19.9529 68.9978 20.0896 68.9961 20.2404V20.8643C68.9961 21.0533 69.0309 21.2165 69.1005 21.354C69.1718 21.4916 69.2721 21.5977 69.4013 21.6722C69.5306 21.7468 69.6839 21.7841 69.8612 21.7841C69.9789 21.7841 70.0866 21.7675 70.1843 21.7344C70.2821 21.7012 70.3658 21.6515 70.4354 21.5852C70.505 21.5189 70.558 21.4377 70.5945 21.3416L71.5739 21.4062C71.5242 21.6416 71.4223 21.8471 71.2682 22.0227C71.1157 22.1967 70.9185 22.3326 70.6765 22.4304C70.4362 22.5265 70.1587 22.5746 69.8438 22.5746ZM73.9273 22.5V17.4091H75.9359C76.322 17.4091 76.6509 17.4828 76.9227 17.6303C77.1945 17.7762 77.4016 17.9792 77.5442 18.2393C77.6883 18.4979 77.7604 18.7962 77.7604 19.1342C77.7604 19.4723 77.6875 19.7706 77.5417 20.0291C77.3958 20.2876 77.1846 20.489 76.9078 20.6332C76.6327 20.7773 76.2996 20.8494 75.9085 20.8494H74.6283V19.9869H75.7345C75.9417 19.9869 76.1123 19.9512 76.2466 19.88C76.3825 19.8071 76.4836 19.7068 76.5498 19.5792C76.6178 19.4499 76.6518 19.3016 76.6518 19.1342C76.6518 18.9652 76.6178 18.8177 76.5498 18.6918C76.4836 18.5642 76.3825 18.4656 76.2466 18.396C76.1107 18.3247 75.9383 18.2891 75.7295 18.2891H75.0037V22.5H73.9273ZM79.4986 17.4091V22.5H78.4397V17.4091H79.4986ZM81.4357 22.5721C81.1921 22.5721 80.975 22.5298 80.7844 22.4453C80.5938 22.3591 80.443 22.2324 80.332 22.065C80.2226 21.896 80.1679 21.6855 80.1679 21.4336C80.1679 21.2215 80.2069 21.0433 80.2848 20.8991C80.3626 20.755 80.4687 20.639 80.6029 20.5511C80.7372 20.4633 80.8896 20.397 81.0603 20.3523C81.2327 20.3075 81.4133 20.276 81.6022 20.2578C81.8243 20.2346 82.0033 20.2131 82.1392 20.1932C82.2751 20.1716 82.3737 20.1402 82.435 20.0987C82.4963 20.0573 82.5269 19.996 82.5269 19.9148V19.8999C82.5269 19.7424 82.4772 19.6206 82.3778 19.5344C82.28 19.4483 82.1408 19.4052 81.9602 19.4052C81.7696 19.4052 81.618 19.4474 81.5053 19.532C81.3926 19.6148 81.318 19.7192 81.2816 19.8452L80.3022 19.7656C80.3519 19.5336 80.4496 19.3331 80.5955 19.1641C80.7413 18.9934 80.9294 18.8625 81.1598 18.7713C81.3918 18.6785 81.6602 18.6321 81.9652 18.6321C82.1773 18.6321 82.3803 18.657 82.5742 18.7067C82.7697 18.7564 82.9429 18.8335 83.0937 18.9379C83.2462 19.0423 83.3663 19.1765 83.4541 19.3406C83.542 19.503 83.5859 19.6977 83.5859 19.9247V22.5H82.5816V21.9705H82.5518C82.4905 22.0898 82.4085 22.1951 82.3057 22.2862C82.203 22.3757 82.0795 22.4461 81.9353 22.4975C81.7911 22.5472 81.6246 22.5721 81.4357 22.5721ZM81.7389 21.8413C81.8947 21.8413 82.0323 21.8106 82.1516 21.7493C82.2709 21.6863 82.3645 21.6018 82.4325 21.4957C82.5004 21.3897 82.5344 21.2695 82.5344 21.1353V20.7301C82.5013 20.7517 82.4557 20.7715 82.3977 20.7898C82.3413 20.8063 82.2775 20.8221 82.2063 20.837C82.135 20.8503 82.0638 20.8627 81.9925 20.8743C81.9212 20.8842 81.8566 20.8933 81.7986 20.9016C81.6743 20.9199 81.5658 20.9489 81.473 20.9886C81.3802 21.0284 81.3081 21.0823 81.2567 21.1502C81.2053 21.2165 81.1796 21.2994 81.1796 21.3988C81.1796 21.543 81.2318 21.6532 81.3362 21.7294C81.4423 21.804 81.5765 21.8413 81.7389 21.8413ZM84.9245 23.9318C84.7903 23.9318 84.6643 23.921 84.5467 23.8995C84.4306 23.8796 84.3345 23.8539 84.2583 23.8224L84.4969 23.032C84.6212 23.0701 84.7331 23.0908 84.8325 23.0941C84.9336 23.0974 85.0206 23.0742 85.0935 23.0245C85.1681 22.9748 85.2286 22.8903 85.275 22.771L85.3371 22.6094L83.9675 18.6818H85.0811L85.8716 21.4858H85.9114L86.7093 18.6818H87.8304L86.3464 22.9126C86.2751 23.1181 86.1782 23.2971 86.0555 23.4496C85.9346 23.6037 85.7813 23.7222 85.5957 23.805C85.4101 23.8896 85.1863 23.9318 84.9245 23.9318Z" fill="#282828"/>
</svg>
