<svg width="102" height="31" viewBox="0 0 102 31" fill="none" xmlns="http://www.w3.org/2000/svg">
<rect width="102" height="31" rx="3" fill="#F1F1F1"/>
<path d="M32.5832 16.2298C32.5562 13.3245 34.954 11.9108 35.0653 11.8431C33.7062 9.85783 31.6018 9.58388 30.8632 9.56358C29.096 9.37756 27.3795 10.6256 26.479 10.6256C25.5786 10.6256 24.1723 9.58387 22.6783 9.61431C20.756 9.64475 18.9551 10.7609 17.9669 12.4959C15.93 16.0336 17.451 21.2286 19.4002 24.0899C20.3749 25.4901 21.5181 27.0526 23.0088 26.9985C24.469 26.9377 25.0154 26.0651 26.7792 26.0651C28.543 26.0651 29.0387 26.9985 30.5597 26.9647C32.1279 26.9377 33.116 25.5577 34.0569 24.144C35.1833 22.5375 35.6386 20.958 35.6555 20.8769C35.6184 20.8633 32.6101 19.7134 32.5798 16.2298H32.5832Z" fill="#282828"/>
<path d="M29.7066 7.68654C30.4924 6.70233 31.0286 5.35962 30.8802 4C29.7437 4.05073 28.3205 4.78804 27.501 5.75195C26.7759 6.60087 26.1284 7.99431 26.297 9.3032C27.5752 9.3979 28.8871 8.65721 29.7066 7.68654Z" fill="#282828"/>
<path d="M42.4808 14.5H41.8345L43.7038 9.40909H44.3402L46.2095 14.5H45.5632L44.0419 10.2145H44.0021L42.4808 14.5ZM42.7194 12.5114H45.3246V13.0582H42.7194V12.5114ZM49.5666 10.6818L48.1546 14.5H47.558L46.1461 10.6818H46.7825L47.8364 13.7244H47.8762L48.9302 10.6818H49.5666ZM51.3483 14.5895C51.1063 14.5895 50.8867 14.5439 50.6895 14.4528C50.4923 14.36 50.3357 14.2266 50.2197 14.0526C50.1037 13.8769 50.0457 13.6648 50.0457 13.4162C50.0457 13.1974 50.0888 13.0201 50.175 12.8842C50.2611 12.7467 50.3763 12.639 50.5205 12.5611C50.6647 12.4832 50.8238 12.4252 50.9978 12.3871C51.1734 12.3473 51.3499 12.3158 51.5272 12.2926C51.7592 12.2628 51.9473 12.2404 52.0915 12.2255C52.2373 12.2089 52.3434 12.1816 52.4097 12.1435C52.4776 12.1054 52.5116 12.0391 52.5116 11.9446V11.9247C52.5116 11.6795 52.4445 11.4889 52.3103 11.353C52.1777 11.2171 51.9763 11.1491 51.7062 11.1491C51.4261 11.1491 51.2066 11.2105 51.0475 11.3331C50.8884 11.4557 50.7765 11.5866 50.7119 11.7259L50.1551 11.527C50.2545 11.295 50.3871 11.1143 50.5528 10.9851C50.7202 10.8542 50.9025 10.763 51.0997 10.7116C51.2985 10.6586 51.4941 10.6321 51.6863 10.6321C51.809 10.6321 51.9498 10.647 52.1089 10.6768C52.2697 10.705 52.4246 10.7638 52.5738 10.8533C52.7246 10.9428 52.8497 11.0779 52.9491 11.2585C53.0485 11.4392 53.0983 11.6811 53.0983 11.9844V14.5H52.5116V13.983H52.4818C52.442 14.0658 52.3757 14.1545 52.2829 14.2489C52.1901 14.3434 52.0667 14.4238 51.9125 14.4901C51.7584 14.5563 51.5703 14.5895 51.3483 14.5895ZM51.4377 14.0625C51.6698 14.0625 51.8653 14.0169 52.0244 13.9258C52.1851 13.8346 52.3061 13.717 52.3873 13.5728C52.4702 13.4286 52.5116 13.277 52.5116 13.1179V12.581C52.4867 12.6108 52.4321 12.6381 52.3475 12.663C52.2647 12.6862 52.1686 12.7069 52.0592 12.7251C51.9515 12.7417 51.8462 12.7566 51.7435 12.7699C51.6424 12.7815 51.5604 12.7914 51.4974 12.7997C51.3449 12.8196 51.2024 12.8519 51.0698 12.8967C50.9389 12.9397 50.8329 13.0052 50.7517 13.093C50.6721 13.1792 50.6323 13.2969 50.6323 13.446C50.6323 13.6499 50.7077 13.804 50.8586 13.9084C51.011 14.0111 51.2041 14.0625 51.4377 14.0625ZM54.169 14.5V10.6818H54.7557V14.5H54.169ZM54.4673 10.0455C54.353 10.0455 54.2544 10.0065 54.1715 9.92862C54.0903 9.85073 54.0497 9.7571 54.0497 9.64773C54.0497 9.53835 54.0903 9.44472 54.1715 9.36683C54.2544 9.28894 54.353 9.25 54.4673 9.25C54.5817 9.25 54.6794 9.28894 54.7606 9.36683C54.8435 9.44472 54.8849 9.53835 54.8849 9.64773C54.8849 9.7571 54.8435 9.85073 54.7606 9.92862C54.6794 10.0065 54.5817 10.0455 54.4673 10.0455ZM56.4168 9.40909V14.5H55.8301V9.40909H56.4168ZM58.6149 14.5895C58.3729 14.5895 58.1533 14.5439 57.9561 14.4528C57.7589 14.36 57.6023 14.2266 57.4863 14.0526C57.3703 13.8769 57.3123 13.6648 57.3123 13.4162C57.3123 13.1974 57.3554 13.0201 57.4416 12.8842C57.5277 12.7467 57.6429 12.639 57.7871 12.5611C57.9313 12.4832 58.0904 12.4252 58.2644 12.3871C58.44 12.3473 58.6165 12.3158 58.7938 12.2926C59.0258 12.2628 59.2139 12.2404 59.3581 12.2255C59.5039 12.2089 59.61 12.1816 59.6763 12.1435C59.7442 12.1054 59.7782 12.0391 59.7782 11.9446V11.9247C59.7782 11.6795 59.7111 11.4889 59.5769 11.353C59.4443 11.2171 59.2429 11.1491 58.9728 11.1491C58.6927 11.1491 58.4732 11.2105 58.3141 11.3331C58.155 11.4557 58.0431 11.5866 57.9785 11.7259L57.4217 11.527C57.5211 11.295 57.6537 11.1143 57.8194 10.9851C57.9868 10.8542 58.1691 10.763 58.3663 10.7116C58.5651 10.6586 58.7607 10.6321 58.9529 10.6321C59.0756 10.6321 59.2164 10.647 59.3755 10.6768C59.5363 10.705 59.6912 10.7638 59.8404 10.8533C59.9912 10.9428 60.1163 11.0779 60.2157 11.2585C60.3151 11.4392 60.3649 11.6811 60.3649 11.9844V14.5H59.7782V13.983H59.7484C59.7086 14.0658 59.6423 14.1545 59.5495 14.2489C59.4567 14.3434 59.3333 14.4238 59.1791 14.4901C59.025 14.5563 58.8369 14.5895 58.6149 14.5895ZM58.7043 14.0625C58.9364 14.0625 59.1319 14.0169 59.291 13.9258C59.4517 13.8346 59.5727 13.717 59.6539 13.5728C59.7368 13.4286 59.7782 13.277 59.7782 13.1179V12.581C59.7534 12.6108 59.6987 12.6381 59.6141 12.663C59.5313 12.6862 59.4352 12.7069 59.3258 12.7251C59.2181 12.7417 59.1128 12.7566 59.0101 12.7699C58.909 12.7815 58.827 12.7914 58.764 12.7997C58.6115 12.8196 58.469 12.8519 58.3364 12.8967C58.2055 12.9397 58.0995 13.0052 58.0183 13.093C57.9387 13.1792 57.8989 13.2969 57.8989 13.446C57.8989 13.6499 57.9744 13.804 58.1252 13.9084C58.2776 14.0111 58.4707 14.0625 58.7043 14.0625ZM61.5152 14.5V9.40909H62.1018V11.2884H62.1515C62.1946 11.2221 62.2543 11.1375 62.3305 11.0348C62.4084 10.9304 62.5194 10.8376 62.6636 10.7564C62.8094 10.6735 63.0066 10.6321 63.2552 10.6321C63.5767 10.6321 63.8601 10.7125 64.1054 10.8732C64.3506 11.034 64.542 11.2618 64.6796 11.5568C64.8171 11.8518 64.8859 12.1998 64.8859 12.6009C64.8859 13.0052 64.8171 13.3557 64.6796 13.6523C64.542 13.9473 64.3515 14.176 64.1078 14.3384C63.8642 14.4992 63.5833 14.5795 63.2652 14.5795C63.0199 14.5795 62.8235 14.5389 62.676 14.4577C62.5285 14.3749 62.415 14.2812 62.3355 14.1768C62.2559 14.0708 62.1946 13.983 62.1515 13.9134H62.0819V14.5H61.5152ZM62.0919 12.5909C62.0919 12.8793 62.1341 13.1336 62.2186 13.354C62.3032 13.5728 62.4266 13.7443 62.589 13.8686C62.7514 13.9912 62.9503 14.0526 63.1856 14.0526C63.4309 14.0526 63.6355 13.9879 63.7996 13.8587C63.9653 13.7277 64.0896 13.5521 64.1725 13.3317C64.257 13.1096 64.2992 12.8627 64.2992 12.5909C64.2992 12.3224 64.2578 12.0805 64.175 11.8651C64.0938 11.648 63.9703 11.4764 63.8046 11.3505C63.6405 11.2229 63.4342 11.1591 63.1856 11.1591C62.947 11.1591 62.7465 11.2196 62.5841 11.3406C62.4216 11.4599 62.299 11.6272 62.2162 11.8427C62.1333 12.0565 62.0919 12.3059 62.0919 12.5909ZM66.3699 9.40909V14.5H65.7833V9.40909H66.3699ZM69.0453 14.5795C68.6774 14.5795 68.36 14.4983 68.0932 14.3359C67.828 14.1719 67.6234 13.9432 67.4792 13.6499C67.3367 13.3549 67.2654 13.0118 67.2654 12.6207C67.2654 12.2296 67.3367 11.8849 67.4792 11.5866C67.6234 11.2867 67.8239 11.053 68.0808 10.8857C68.3393 10.7166 68.6409 10.6321 68.9856 10.6321C69.1845 10.6321 69.3808 10.6652 69.5747 10.7315C69.7686 10.7978 69.9451 10.9055 70.1042 11.0547C70.2633 11.2022 70.3901 11.3977 70.4845 11.6413C70.579 11.8849 70.6262 12.1849 70.6262 12.5412V12.7898H67.683V12.2827H70.0296C70.0296 12.0672 69.9865 11.875 69.9004 11.706C69.8159 11.5369 69.6949 11.4035 69.5374 11.3058C69.3817 11.208 69.1977 11.1591 68.9856 11.1591C68.7519 11.1591 68.5498 11.2171 68.3791 11.3331C68.21 11.4474 68.0799 11.5966 67.9888 11.7805C67.8976 11.9645 67.8521 12.1617 67.8521 12.3722V12.7102C67.8521 12.9986 67.9018 13.243 68.0012 13.4435C68.1023 13.6424 68.2423 13.794 68.4213 13.8984C68.6003 14.0012 68.8083 14.0526 69.0453 14.0526C69.1994 14.0526 69.3386 14.031 69.4629 13.9879C69.5888 13.9432 69.6974 13.8769 69.7885 13.7891C69.8797 13.6996 69.9501 13.5885 69.9998 13.456L70.5666 13.6151C70.5069 13.8073 70.4066 13.9763 70.2658 14.1222C70.1249 14.2663 69.9509 14.379 69.7438 14.4602C69.5366 14.5398 69.3038 14.5795 69.0453 14.5795ZM75.0385 14.5795C74.6938 14.5795 74.3914 14.4975 74.1312 14.3335C73.8727 14.1694 73.6705 13.9399 73.5247 13.6449C73.3805 13.3499 73.3084 13.0052 73.3084 12.6108C73.3084 12.2131 73.3805 11.8659 73.5247 11.5692C73.6705 11.2726 73.8727 11.0423 74.1312 10.8782C74.3914 10.7141 74.6938 10.6321 75.0385 10.6321C75.3832 10.6321 75.6848 10.7141 75.9433 10.8782C76.2035 11.0423 76.4057 11.2726 76.5499 11.5692C76.6957 11.8659 76.7686 12.2131 76.7686 12.6108C76.7686 13.0052 76.6957 13.3499 76.5499 13.6449C76.4057 13.9399 76.2035 14.1694 75.9433 14.3335C75.6848 14.4975 75.3832 14.5795 75.0385 14.5795ZM75.0385 14.0526C75.3003 14.0526 75.5158 13.9854 75.6848 13.8512C75.8538 13.717 75.979 13.5405 76.0602 13.3217C76.1414 13.103 76.182 12.866 76.182 12.6108C76.182 12.3556 76.1414 12.1178 76.0602 11.8974C75.979 11.677 75.8538 11.4988 75.6848 11.3629C75.5158 11.227 75.3003 11.1591 75.0385 11.1591C74.7767 11.1591 74.5612 11.227 74.3922 11.3629C74.2232 11.4988 74.098 11.677 74.0168 11.8974C73.9356 12.1178 73.895 12.3556 73.895 12.6108C73.895 12.866 73.9356 13.103 74.0168 13.3217C74.098 13.5405 74.2232 13.717 74.3922 13.8512C74.5612 13.9854 74.7767 14.0526 75.0385 14.0526ZM78.2508 12.2031V14.5H77.6641V10.6818H78.2309V11.2784H78.2806C78.3701 11.0845 78.506 10.9287 78.6883 10.8111C78.8706 10.6918 79.1059 10.6321 79.3942 10.6321C79.6528 10.6321 79.879 10.6851 80.0729 10.7912C80.2668 10.8956 80.4176 11.0547 80.5253 11.2685C80.633 11.4806 80.6869 11.7491 80.6869 12.0739V14.5H80.1002V12.1136C80.1002 11.8137 80.0223 11.58 79.8665 11.4126C79.7108 11.2436 79.497 11.1591 79.2252 11.1591C79.0379 11.1591 78.8706 11.1997 78.7231 11.2809C78.5772 11.3621 78.4621 11.4806 78.3776 11.6364C78.293 11.7921 78.2508 11.9811 78.2508 12.2031ZM42.9755 22.5H41.8221L43.5795 17.4091H44.9666L46.7216 22.5H45.5682L44.2929 18.5724H44.2532L42.9755 22.5ZM42.9034 20.4989H45.6278V21.3391H42.9034V20.4989ZM47.3144 23.9318V18.6818H48.3585V19.3232H48.4057C48.4521 19.2204 48.5192 19.116 48.607 19.0099C48.6965 18.9022 48.8125 18.8127 48.9551 18.7415C49.0992 18.6686 49.2782 18.6321 49.492 18.6321C49.7704 18.6321 50.0273 18.705 50.2626 18.8509C50.4979 18.995 50.686 19.2129 50.8269 19.5046C50.9677 19.7946 51.0382 20.1584 51.0382 20.5959C51.0382 21.0218 50.9694 21.3814 50.8318 21.6747C50.6959 21.9664 50.5103 22.1876 50.275 22.3384C50.0413 22.4876 49.7795 22.5621 49.4895 22.5621C49.284 22.5621 49.1092 22.5282 48.965 22.4602C48.8225 22.3923 48.7056 22.3069 48.6145 22.2042C48.5234 22.0998 48.4538 21.9946 48.4057 21.8885H48.3734V23.9318H47.3144ZM48.351 20.5909C48.351 20.8179 48.3825 21.016 48.4455 21.185C48.5084 21.354 48.5996 21.4858 48.7189 21.5803C48.8382 21.6731 48.9832 21.7195 49.1539 21.7195C49.3263 21.7195 49.4721 21.6722 49.5914 21.5778C49.7107 21.4817 49.8011 21.3491 49.8624 21.18C49.9253 21.0094 49.9568 20.813 49.9568 20.5909C49.9568 20.3705 49.9262 20.1766 49.8649 20.0092C49.8035 19.8419 49.7132 19.7109 49.5939 19.6165C49.4746 19.522 49.3279 19.4748 49.1539 19.4748C48.9816 19.4748 48.8357 19.5204 48.7164 19.6115C48.5988 19.7027 48.5084 19.8319 48.4455 19.9993C48.3825 20.1667 48.351 20.3639 48.351 20.5909ZM51.7441 23.9318V18.6818H52.7882V19.3232H52.8354C52.8818 19.2204 52.9489 19.116 53.0367 19.0099C53.1262 18.9022 53.2422 18.8127 53.3847 18.7415C53.5289 18.6686 53.7079 18.6321 53.9217 18.6321C54.2001 18.6321 54.4569 18.705 54.6923 18.8509C54.9276 18.995 55.1157 19.2129 55.2565 19.5046C55.3974 19.7946 55.4678 20.1584 55.4678 20.5959C55.4678 21.0218 55.3991 21.3814 55.2615 21.6747C55.1256 21.9664 54.94 22.1876 54.7047 22.3384C54.471 22.4876 54.2092 22.5621 53.9192 22.5621C53.7137 22.5621 53.5389 22.5282 53.3947 22.4602C53.2522 22.3923 53.1353 22.3069 53.0442 22.2042C52.953 22.0998 52.8834 21.9946 52.8354 21.8885H52.8031V23.9318H51.7441ZM52.7807 20.5909C52.7807 20.8179 52.8122 21.016 52.8752 21.185C52.9381 21.354 53.0293 21.4858 53.1486 21.5803C53.2679 21.6731 53.4129 21.7195 53.5836 21.7195C53.756 21.7195 53.9018 21.6722 54.0211 21.5778C54.1404 21.4817 54.2307 21.3491 54.2921 21.18C54.355 21.0094 54.3865 20.813 54.3865 20.5909C54.3865 20.3705 54.3559 20.1766 54.2945 20.0092C54.2332 19.8419 54.1429 19.7109 54.0236 19.6165C53.9043 19.522 53.7576 19.4748 53.5836 19.4748C53.4113 19.4748 53.2654 19.5204 53.1461 19.6115C53.0284 19.7027 52.9381 19.8319 52.8752 19.9993C52.8122 20.1667 52.7807 20.3639 52.7807 20.5909ZM60.5755 18.8732C60.5556 18.6727 60.4703 18.5169 60.3195 18.4059C60.1687 18.2949 59.964 18.2393 59.7055 18.2393C59.5298 18.2393 59.3815 18.2642 59.2605 18.3139C59.1396 18.362 59.0468 18.4291 58.9821 18.5153C58.9192 18.6014 58.8877 18.6992 58.8877 18.8086C58.8844 18.8997 58.9034 18.9793 58.9448 19.0472C58.9879 19.1152 59.0468 19.174 59.1213 19.2237C59.1959 19.2718 59.2821 19.314 59.3799 19.3505C59.4776 19.3853 59.582 19.4151 59.6931 19.44L60.1505 19.5494C60.3725 19.5991 60.5764 19.6654 60.762 19.7482C60.9476 19.8311 61.1083 19.933 61.2442 20.054C61.3801 20.175 61.4853 20.3175 61.5599 20.4815C61.6361 20.6456 61.6751 20.8337 61.6767 21.0458C61.6751 21.3574 61.5955 21.6275 61.4381 21.8562C61.2823 22.0832 61.0569 22.2597 60.762 22.3857C60.4686 22.5099 60.1148 22.5721 59.7005 22.5721C59.2895 22.5721 58.9316 22.5091 58.6267 22.3832C58.3234 22.2572 58.0864 22.0708 57.9157 21.8239C57.7467 21.5753 57.658 21.2679 57.6497 20.9016H58.6913C58.7029 21.0723 58.7518 21.2148 58.838 21.3292C58.9258 21.4419 59.0426 21.5272 59.1885 21.5852C59.3359 21.6416 59.5025 21.6697 59.6881 21.6697C59.8704 21.6697 60.0287 21.6432 60.1629 21.5902C60.2988 21.5372 60.404 21.4634 60.4786 21.369C60.5532 21.2745 60.5904 21.166 60.5904 21.0433C60.5904 20.929 60.5565 20.8329 60.4885 20.755C60.4222 20.6771 60.3245 20.6108 60.1952 20.5561C60.0676 20.5014 59.911 20.4517 59.7254 20.407L59.1711 20.2678C58.7418 20.1634 58.4029 20.0001 58.1544 19.7781C57.9058 19.556 57.7823 19.2569 57.784 18.8807C57.7823 18.5724 57.8644 18.3031 58.0301 18.0728C58.1975 17.8424 58.427 17.6626 58.7186 17.5334C59.0103 17.4041 59.3417 17.3395 59.713 17.3395C60.0908 17.3395 60.4206 17.4041 60.7023 17.5334C60.9857 17.6626 61.2061 17.8424 61.3635 18.0728C61.521 18.3031 61.6022 18.57 61.6071 18.8732H60.5755ZM64.4117 18.6818V19.4773H62.1124V18.6818H64.4117ZM62.6344 17.767H63.6933V21.3267C63.6933 21.4245 63.7083 21.5007 63.7381 21.5554C63.7679 21.6084 63.8093 21.6457 63.8624 21.6673C63.9171 21.6888 63.98 21.6996 64.0513 21.6996C64.101 21.6996 64.1507 21.6954 64.2004 21.6871C64.2502 21.6772 64.2883 21.6697 64.3148 21.6648L64.4813 22.4528C64.4283 22.4693 64.3537 22.4884 64.2576 22.5099C64.1615 22.5331 64.0447 22.5472 63.9071 22.5522C63.6519 22.5621 63.4282 22.5282 63.236 22.4503C63.0454 22.3724 62.8971 22.2514 62.791 22.0874C62.6849 21.9233 62.6327 21.7161 62.6344 21.4659V17.767ZM66.7857 22.5746C66.3995 22.5746 66.0656 22.4925 65.7839 22.3285C65.5038 22.1628 65.2876 21.9324 65.1351 21.6374C64.9826 21.3408 64.9064 20.9969 64.9064 20.6058C64.9064 20.2114 64.9826 19.8667 65.1351 19.5717C65.2876 19.2751 65.5038 19.0447 65.7839 18.8807C66.0656 18.715 66.3995 18.6321 66.7857 18.6321C67.1718 18.6321 67.5049 18.715 67.785 18.8807C68.0667 19.0447 68.2838 19.2751 68.4362 19.5717C68.5887 19.8667 68.6649 20.2114 68.6649 20.6058C68.6649 20.9969 68.5887 21.3408 68.4362 21.6374C68.2838 21.9324 68.0667 22.1628 67.785 22.3285C67.5049 22.4925 67.1718 22.5746 66.7857 22.5746ZM66.7906 21.7543C66.9663 21.7543 67.113 21.7045 67.2306 21.6051C67.3483 21.504 67.4369 21.3665 67.4966 21.1925C67.5579 21.0185 67.5886 20.8204 67.5886 20.5984C67.5886 20.3763 67.5579 20.1783 67.4966 20.0043C67.4369 19.8303 67.3483 19.6927 67.2306 19.5916C67.113 19.4905 66.9663 19.44 66.7906 19.44C66.6133 19.44 66.4642 19.4905 66.3432 19.5916C66.2239 19.6927 66.1336 19.8303 66.0722 20.0043C66.0126 20.1783 65.9828 20.3763 65.9828 20.5984C65.9828 20.8204 66.0126 21.0185 66.0722 21.1925C66.1336 21.3665 66.2239 21.504 66.3432 21.6051C66.4642 21.7045 66.6133 21.7543 66.7906 21.7543ZM69.3535 22.5V18.6818H70.3801V19.348H70.4199C70.4895 19.111 70.6063 18.9321 70.7704 18.8111C70.9345 18.6884 71.1234 18.6271 71.3372 18.6271C71.3902 18.6271 71.4474 18.6304 71.5087 18.6371C71.57 18.6437 71.6239 18.6528 71.6703 18.6644V19.604C71.6205 19.5891 71.5518 19.5759 71.4639 19.5643C71.3761 19.5527 71.2957 19.5469 71.2228 19.5469C71.067 19.5469 70.9278 19.5808 70.8052 19.6488C70.6842 19.7151 70.5881 19.8079 70.5168 19.9272C70.4472 20.0465 70.4124 20.1841 70.4124 20.3398V22.5H69.3535ZM73.7801 22.5746C73.3873 22.5746 73.0492 22.495 72.7659 22.3359C72.4841 22.1752 72.2671 21.9482 72.1146 21.6548C71.9621 21.3598 71.8859 21.011 71.8859 20.6083C71.8859 20.2156 71.9621 19.8709 72.1146 19.5742C72.2671 19.2776 72.4817 19.0464 72.7584 18.8807C73.0368 18.715 73.3633 18.6321 73.7378 18.6321C73.9897 18.6321 74.2242 18.6727 74.4413 18.7539C74.66 18.8335 74.8506 18.9536 75.013 19.1143C75.1771 19.2751 75.3047 19.4773 75.3958 19.7209C75.487 19.9628 75.5326 20.2462 75.5326 20.571V20.8619H72.3085V20.2056H74.5358C74.5358 20.0531 74.5026 19.9181 74.4363 19.8004C74.37 19.6828 74.2781 19.5908 74.1604 19.5245C74.0444 19.4566 73.9093 19.4226 73.7552 19.4226C73.5945 19.4226 73.4519 19.4599 73.3277 19.5344C73.205 19.6074 73.1089 19.706 73.0393 19.8303C72.9697 19.9529 72.9341 20.0896 72.9324 20.2404V20.8643C72.9324 21.0533 72.9672 21.2165 73.0368 21.354C73.1081 21.4916 73.2083 21.5977 73.3376 21.6722C73.4669 21.7468 73.6202 21.7841 73.7975 21.7841C73.9151 21.7841 74.0229 21.7675 74.1206 21.7344C74.2184 21.7012 74.3021 21.6515 74.3717 21.5852C74.4413 21.5189 74.4943 21.4377 74.5308 21.3416L75.5102 21.4062C75.4605 21.6416 75.3586 21.8471 75.2044 22.0227C75.052 22.1967 74.8548 22.3326 74.6128 22.4304C74.3725 22.5265 74.0949 22.5746 73.7801 22.5746Z" fill="#282828"/>
</svg>
