<svg width="38" height="38" viewBox="0 0 38 38" fill="none" xmlns="http://www.w3.org/2000/svg">
<path d="M12.3333 4.00016H13.9999C10.7499 13.7335 10.7499 24.2668 13.9999 34.0002H12.3333M23.9999 4.00016C27.2499 13.7335 27.2499 24.2668 23.9999 34.0002M3.99992 25.6668V24.0002C13.7333 27.2502 24.2666 27.2502 33.9999 24.0002V25.6668M3.99992 14.0002C13.7333 10.7502 24.2666 10.7502 33.9999 14.0002M35.6666 19.0002C35.6666 28.2049 28.2047 35.6668 18.9999 35.6668C9.79517 35.6668 2.33325 28.2049 2.33325 19.0002C2.33325 9.79542 9.79517 2.3335 18.9999 2.3335C28.2047 2.3335 35.6666 9.79542 35.6666 19.0002Z" stroke="#282828" stroke-width="3" stroke-linecap="round" stroke-linejoin="round"/>
</svg>
